<?xml version="1.0" standalone="no"?>
<!DOCTYPE svg PUBLIC "-//W3C//DTD SVG 20010904//EN"
 "http://www.w3.org/TR/2001/REC-SVG-20010904/DTD/svg10.dtd">
<svg version="1.0" xmlns="http://www.w3.org/2000/svg"
 width="500.000000pt" height="500.000000pt" viewBox="0 0 500.000000 500.000000"
 preserveAspectRatio="xMidYMid meet">

<g transform="translate(0.000000,500.000000) scale(0.100000,-0.100000)"
fill="#000000" stroke="none">
<path d="M2947 2933 c-4 -3 -7 -136 -7 -295 l0 -288 60 0 60 0 0 57 0 56 29
-40 c84 -117 303 -106 367 18 25 50 20 134 -11 181 -34 51 -110 88 -181 88
-66 0 -146 -39 -179 -88 l-25 -37 0 178 0 177 -53 0 c-30 0 -57 -3 -60 -7z
m374 -352 c38 -39 38 -74 -1 -113 -26 -25 -36 -29 -62 -24 -60 12 -90 63 -66
114 14 28 51 52 81 52 10 0 32 -13 48 -29z"/>
<path d="M1465 2691 c-112 -50 -147 -185 -73 -275 54 -66 134 -90 220 -66 48
14 52 21 32 64 -17 34 -18 35 -65 29 -42 -5 -50 -2 -73 20 -18 18 -26 37 -26
62 0 25 8 44 26 62 23 22 31 25 73 20 47 -6 48 -5 65 29 20 43 16 50 -32 64
-54 15 -102 12 -147 -9z"/>
<path d="M1734 2692 c-152 -72 -147 -272 8 -336 70 -30 166 -14 219 35 l29 27
0 -34 0 -34 59 0 59 0 4 105 c3 92 6 107 25 126 21 21 34 23 109 17 8 -1 8
-12 2 -38 -20 -76 25 -160 105 -199 48 -23 93 -26 149 -11 48 14 52 21 32 64
-17 34 -18 35 -64 29 -43 -5 -48 -3 -73 27 -34 40 -34 70 0 110 25 30 30 32
73 27 46 -6 47 -5 63 29 10 19 17 37 17 40 0 12 -72 34 -110 34 -55 0 -106
-23 -148 -67 l-34 -37 21 42 22 42 -26 10 c-43 16 -80 12 -119 -15 -44 -30
-46 -30 -46 -5 0 18 -7 20 -60 20 l-60 0 0 -47 0 -48 -19 29 c-45 68 -157 95
-237 58z m128 -79 c30 -27 21 -33 -47 -33 -36 0 -65 3 -65 7 0 3 7 15 17 25
20 22 70 23 95 1z m128 -138 c0 -40 0 -40 -42 -19 -29 15 -34 15 -59 0 -56
-33 -139 -12 -139 36 0 16 10 18 120 18 l120 0 0 -35z"/>
<path d="M2612 2689 c-125 -62 -124 -273 1 -330 54 -24 103 -24 152 1 47 24
45 24 45 5 0 -12 13 -15 60 -15 l60 0 0 175 0 175 -65 0 c-49 0 -65 -3 -65
-14 0 -11 -8 -10 -37 5 -49 25 -98 24 -151 -2z m162 -101 c15 -13 29 -37 32
-55 5 -27 1 -37 -25 -64 -27 -26 -37 -30 -63 -25 -60 12 -90 63 -66 114 13 27
50 52 80 52 9 0 28 -10 42 -22z"/>
<path d="M3514 2486 c-51 -22 -60 -81 -19 -121 48 -49 125 -16 125 54 0 60
-49 91 -106 67z"/>
</g>
</svg>
